<svg xmlns="http://www.w3.org/2000/svg" xmlns:xlink="http://www.w3.org/1999/xlink" width="49.586" height="27.146" viewBox="0 0 49.586 27.146"><defs><clipPath id="a"><rect width="49.586" height="27.146" fill="none"/></clipPath></defs><g clip-path="url(#a)"><path d="M2,21.238l5.284-5.284a7.556,7.556,0,0,1,10.621,0l-5.337,5.284A7.4,7.4,0,0,1,2,21.238Z" transform="translate(-0.593 -6.135)" fill="#414042" stroke="#fff" stroke-miterlimit="10" stroke-width="2"/><path d="M17.9,32.854V25.4a7.451,7.451,0,0,1,7.5-7.5v7.5A7.5,7.5,0,0,1,17.9,32.854Z" transform="translate(-8.091 -8.081)" fill="#414042" stroke="#fff" stroke-miterlimit="10" stroke-width="2"/><path d="M35.4,33.805l-5.284-5.337a7.4,7.4,0,0,1,0-10.568L35.4,23.184A7.556,7.556,0,0,1,35.4,33.805Z" transform="translate(-12.806 -8.081)" fill="#414042" stroke="#fff" stroke-miterlimit="10" stroke-width="2"/><path d="M76.305,20.054l-5.284,5.337a7.556,7.556,0,0,1-10.621,0l5.284-5.337A7.556,7.556,0,0,1,76.305,20.054Z" transform="translate(-28.134 -8.069)" fill="#414042" stroke="#fff" stroke-miterlimit="10" stroke-width="2"/><path d="M67.9,3.7v7.5a7.556,7.556,0,0,1-7.5,7.5V11.2a7.556,7.556,0,0,1,7.5-7.5Z" transform="translate(-28.134 -1.385)" fill="#414042" stroke="#fff" stroke-miterlimit="10" stroke-width="2"/><path d="M48.458,2l5.284,5.284a7.451,7.451,0,0,1,0,10.621l-5.284-5.337A7.5,7.5,0,0,1,48.458,2Z" transform="translate(-21.476 -0.583)" fill="#414042" stroke="#fff" stroke-miterlimit="10" stroke-width="2"/><path d="M47.054,25.4h-7.5A7.5,7.5,0,0,1,32.1,17.9h7.451a7.451,7.451,0,0,1,7.5,7.5Z" transform="translate(-14.788 -8.081)" fill="#414042" stroke="#fff" stroke-miterlimit="10" stroke-width="2"/></g></svg>