<svg xmlns="http://www.w3.org/2000/svg" xmlns:xlink="http://www.w3.org/1999/xlink" width="43.567" height="20.503" viewBox="0 0 43.567 20.503"><defs><clipPath id="a"><rect width="43.567" height="20.503" fill="none"/></clipPath></defs><g clip-path="url(#a)"><path d="M64.952,20.058l-5.284,5.337a7.5,7.5,0,0,1-10.568,0l5.284-5.337a7.5,7.5,0,0,1,10.568,0Z" transform="translate(-22.798 -8.073)" fill="#414042" stroke="#d1d3d4" stroke-miterlimit="10" stroke-width="2"/><path d="M47.114,17.905,52.4,12.568A7.5,7.5,0,0,0,52.4,2L47.114,7.284a7.451,7.451,0,0,0,0,10.621Z" transform="translate(-20.813 -0.583)" fill="#414042" stroke="#d1d3d4" stroke-miterlimit="10" stroke-width="2"/><path d="M2,20.058l5.284,5.337a7.556,7.556,0,0,0,10.621,0l-5.337-5.337A7.5,7.5,0,0,0,2,20.058Z" transform="translate(-0.586 -8.073)" fill="#414042" stroke="#d1d3d4" stroke-miterlimit="10" stroke-width="2"/><path d="M25.395,17.905l-5.337-5.337A7.5,7.5,0,0,1,20.058,2l5.337,5.284A7.556,7.556,0,0,1,25.395,17.905Z" transform="translate(-8.076 -0.583)" fill="#414042" stroke="#d1d3d4" stroke-miterlimit="10" stroke-width="2"/><path d="M48.051,6.6v7.451a7.451,7.451,0,0,1-7.451,7.5v-7.5A7.451,7.451,0,0,1,48.051,6.6Z" transform="translate(-18.79 -2.752)" fill="#414042" stroke="#d1d3d4" stroke-miterlimit="10" stroke-width="2"/><path d="M33.9,21.554v-7.5A7.5,7.5,0,0,0,26.4,6.6v7.451a7.451,7.451,0,0,0,7.5,7.5Z" transform="translate(-12.093 -2.752)" fill="#414042" stroke="#d1d3d4" stroke-miterlimit="10" stroke-width="2"/></g></svg>