<svg xmlns="http://www.w3.org/2000/svg" xmlns:xlink="http://www.w3.org/1999/xlink" width="232.235" height="208.093" viewBox="0 0 232.235 208.093"><defs><clipPath id="a"><rect width="232.235" height="208.093" fill="none"/></clipPath></defs><g clip-path="url(#a)"><path d="M17.679,9.994V62.017A52.025,52.025,0,0,0,69.7,114.041V62.017A52.022,52.022,0,0,0,17.679,9.994Z" transform="translate(46.413 -9.994)" fill="#1a675c"/><path d="M28.309,31.254V83.277A52.025,52.025,0,0,0,80.332,135.3V83.277A52.022,52.022,0,0,0,28.309,31.254Z" transform="translate(87.806 72.793)" fill="#e50019"/><path d="M84.859,31.254,39.8,57.266a52.02,52.02,0,0,0-19.038,71.066L65.817,102.32A52.02,52.02,0,0,0,84.859,31.254Z" transform="translate(31.256 72.793)" fill="#f8810a"/><path d="M144.429,58.926,99.375,32.915A52.028,52.028,0,0,0,28.309,51.957L73.363,77.969A52.028,52.028,0,0,0,144.429,58.926Z" transform="translate(87.806 52.089)" fill="#910f19"/><path d="M92.406,11.418,47.352,37.43A51.71,51.71,0,0,0,28.309,56.555V108.5L73.363,82.484A52.027,52.027,0,0,0,92.406,11.418Z" transform="translate(87.806 -4.449)" fill="#286bb3"/><path d="M120.7,57.5,75.644,31.491A52.021,52.021,0,0,0,4.583,50.533L49.637,76.545A52.021,52.021,0,0,0,120.7,57.5Z" transform="translate(-4.583 46.544)" fill="#f7ab00"/></g></svg>