<svg xmlns="http://www.w3.org/2000/svg" xmlns:xlink="http://www.w3.org/1999/xlink" width="47.237" height="40.123" viewBox="0 0 47.237 40.123"><defs><clipPath id="a"><rect width="47.237" height="40.123" fill="none"/></clipPath></defs><g clip-path="url(#a)"><path d="M91.544,511.422l5.03,5.03a7.114,7.114,0,0,1,0,10.06l-5.03-5.03A7.113,7.113,0,0,1,91.544,511.422Z" transform="translate(-80.069 -510.008)" fill="#313133" stroke="#fff" stroke-miterlimit="10" stroke-width="2"/><path d="M75.287,527.315H82.4a7.113,7.113,0,0,1,7.114,7.114H82.4A7.114,7.114,0,0,1,75.287,527.315Z" transform="translate(-73.01 -517.924)" fill="#313133" stroke="#fff" stroke-miterlimit="10" stroke-width="2"/><path d="M73.568,544.451l5.03-5.03a7.113,7.113,0,0,1,10.06,0l-5.03,5.03A7.114,7.114,0,0,1,73.568,544.451Z" transform="translate(-72.154 -522.916)" fill="#313133" stroke="#fff" stroke-miterlimit="10" stroke-width="2"/><path d="M89.46,555.716V548.6a7.114,7.114,0,0,1,7.114-7.114V548.6A7.114,7.114,0,0,1,89.46,555.716Z" transform="translate(-80.069 -524.983)" fill="#313133" stroke="#fff" stroke-miterlimit="10" stroke-width="2"/><path d="M106.6,556.579l-5.03-5.03a7.114,7.114,0,0,1,0-10.06l5.03,5.03A7.114,7.114,0,0,1,106.6,556.579Z" transform="translate(-85.061 -524.983)" fill="#313133" stroke="#fff" stroke-miterlimit="10" stroke-width="2"/><path d="M103.633,527.369v-7.114a7.114,7.114,0,0,1,7.114-7.114v7.114A7.114,7.114,0,0,1,103.633,527.369Z" transform="translate(-87.129 -510.864)" fill="#313133" stroke="#fff" stroke-miterlimit="10" stroke-width="2"/><path d="M134.943,570.752l-5.03-5.03a7.114,7.114,0,0,1,0-10.06l5.03,5.03A7.114,7.114,0,0,1,134.943,570.752Z" transform="translate(-99.18 -532.042)" fill="#313133" stroke="#fff" stroke-miterlimit="10" stroke-width="2"/><path d="M146.207,562.775h-7.114a7.114,7.114,0,0,1-7.114-7.114h7.114A7.114,7.114,0,0,1,146.207,562.775Z" transform="translate(-101.248 -532.042)" fill="#313133" stroke="#fff" stroke-miterlimit="10" stroke-width="2"/><path d="M147.071,543.571l-5.03,5.03a7.114,7.114,0,0,1-10.06,0l5.03-5.03A7.114,7.114,0,0,1,147.071,543.571Z" transform="translate(-101.248 -524.983)" fill="#313133" stroke="#fff" stroke-miterlimit="10" stroke-width="2"/><path d="M139.094,527.315v7.114a7.113,7.113,0,0,1-7.114,7.114v-7.114A7.113,7.113,0,0,1,139.094,527.315Z" transform="translate(-101.248 -517.924)" fill="#313133" stroke="#fff" stroke-miterlimit="10" stroke-width="2"/><path d="M119.89,525.595l5.03,5.03a7.114,7.114,0,0,1,0,10.06l-5.03-5.03A7.114,7.114,0,0,1,119.89,525.595Z" transform="translate(-94.188 -517.067)" fill="#313133" stroke="#fff" stroke-miterlimit="10" stroke-width="2"/><path d="M124.921,555.661v7.114a7.114,7.114,0,0,1-7.114,7.114v-7.114A7.114,7.114,0,0,1,124.921,555.661Z" transform="translate(-94.189 -532.042)" fill="#313133" stroke="#fff" stroke-miterlimit="10" stroke-width="2"/><path d="M117.861,548.6h-7.114a7.114,7.114,0,0,1-7.114-7.114h7.114A7.114,7.114,0,0,1,117.861,548.6Z" transform="translate(-87.129 -524.983)" fill="#313133" stroke="#fff" stroke-miterlimit="10" stroke-width="2"/></g></svg>