<svg xmlns="http://www.w3.org/2000/svg" xmlns:xlink="http://www.w3.org/1999/xlink" width="48.574" height="25.287" viewBox="0 0 48.574 25.287"><defs><clipPath id="a"><rect width="48.574" height="25.287" fill="none"/></clipPath></defs><g clip-path="url(#a)"><path d="M122.331,639.653v7.114a7.113,7.113,0,0,0,7.114,7.114v-7.114A7.114,7.114,0,0,0,122.331,639.653Z" transform="translate(-98.044 -636.708)" fill="#313133" stroke="#fff" stroke-miterlimit="10" stroke-width="2"/><path d="M131.016,636.387l-2.722,6.572a7.114,7.114,0,0,0,3.85,9.294l2.722-6.572A7.114,7.114,0,0,0,131.016,636.387Z" transform="translate(-100.743 -635.081)" fill="#313133" stroke="#fff" stroke-miterlimit="10" stroke-width="2"/><path d="M134.436,653.024l5.03-5.03a7.113,7.113,0,0,0,0-10.06l-5.03,5.03A7.114,7.114,0,0,0,134.436,653.024Z" transform="translate(-103.036 -635.851)" fill="#313133" stroke="#fff" stroke-miterlimit="10" stroke-width="2"/><path d="M150.731,675.113h-7.114A7.114,7.114,0,0,1,136.5,668h7.114A7.114,7.114,0,0,1,150.731,675.113Z" transform="translate(-105.103 -650.826)" fill="#313133" stroke="#fff" stroke-miterlimit="10" stroke-width="2"/><path d="M152.37,665.886l-6.572,2.722a7.114,7.114,0,0,1-9.294-3.85l6.572-2.722A7.113,7.113,0,0,1,152.37,665.886Z" transform="translate(-105.103 -647.586)" fill="#313133" stroke="#fff" stroke-miterlimit="10" stroke-width="2"/><path d="M136.5,660.94l5.03-5.03a7.114,7.114,0,0,1,10.06,0l-5.03,5.03A7.114,7.114,0,0,1,136.5,660.94Z" transform="translate(-105.103 -643.767)" fill="#313133" stroke="#fff" stroke-miterlimit="10" stroke-width="2"/><path d="M79.811,675.113h7.114A7.114,7.114,0,0,0,94.038,668H86.925A7.114,7.114,0,0,0,79.811,675.113Z" transform="translate(-76.865 -650.826)" fill="#313133" stroke="#fff" stroke-miterlimit="10" stroke-width="2"/><path d="M76.545,665.886l6.572,2.722a7.114,7.114,0,0,0,9.294-3.85l-6.572-2.722A7.113,7.113,0,0,0,76.545,665.886Z" transform="translate(-75.239 -647.586)" fill="#313133" stroke="#fff" stroke-miterlimit="10" stroke-width="2"/><path d="M93.182,660.94l-5.03-5.03a7.114,7.114,0,0,0-10.06,0l5.03,5.03A7.114,7.114,0,0,0,93.182,660.94Z" transform="translate(-76.009 -643.767)" fill="#313133" stroke="#fff" stroke-miterlimit="10" stroke-width="2"/><path d="M115.271,639.653v7.114a7.114,7.114,0,0,1-7.114,7.114v-7.114A7.114,7.114,0,0,1,115.271,639.653Z" transform="translate(-90.984 -636.708)" fill="#313133" stroke="#fff" stroke-miterlimit="10" stroke-width="2"/><path d="M106.044,636.387l2.722,6.572a7.114,7.114,0,0,1-3.85,9.294l-2.722-6.572A7.113,7.113,0,0,1,106.044,636.387Z" transform="translate(-87.744 -635.081)" fill="#313133" stroke="#fff" stroke-miterlimit="10" stroke-width="2"/><path d="M101.1,653.024l-5.03-5.03a7.113,7.113,0,0,1,0-10.06l5.03,5.03A7.114,7.114,0,0,1,101.1,653.024Z" transform="translate(-83.925 -635.851)" fill="#313133" stroke="#fff" stroke-miterlimit="10" stroke-width="2"/></g></svg>