<svg xmlns="http://www.w3.org/2000/svg" xmlns:xlink="http://www.w3.org/1999/xlink" width="34.588" height="25.779" viewBox="0 0 34.588 25.779"><defs><clipPath id="a"><rect width="34.588" height="25.779" fill="none"/></clipPath></defs><g clip-path="url(#a)"><path d="M47.952,20.058l-5.284,5.337a7.5,7.5,0,0,1-10.568,0l5.284-5.337a7.5,7.5,0,0,1,10.568,0Z" transform="translate(-14.778 -8.076)" fill="#414042" stroke="#fff" stroke-miterlimit="10" stroke-width="2"/><path d="M39.55,3.7v7.5a7.5,7.5,0,0,1-7.451,7.5V11.2a7.5,7.5,0,0,1,7.451-7.5Z" transform="translate(-14.778 -1.388)" fill="#414042" stroke="#fff" stroke-miterlimit="10" stroke-width="2"/><path d="M20.058,2l5.337,5.284a7.556,7.556,0,0,1,0,10.621l-5.337-5.337A7.5,7.5,0,0,1,20.058,2Z" transform="translate(-8.073 -0.586)" fill="#414042" stroke="#fff" stroke-miterlimit="10" stroke-width="2"/><path d="M3.7,17.9h7.5a7.5,7.5,0,0,1,7.5,7.5H11.2a7.556,7.556,0,0,1-7.5-7.5Z" transform="translate(-1.385 -8.085)" fill="#414042" stroke="#fff" stroke-miterlimit="10" stroke-width="2"/><path d="M2,35.4l5.284-5.284a7.451,7.451,0,0,1,10.621,0L12.568,35.4A7.5,7.5,0,0,1,2,35.4Z" transform="translate(-0.583 -12.796)" fill="#414042" stroke="#fff" stroke-miterlimit="10" stroke-width="2"/><path d="M32.1,32.1h7.451a7.451,7.451,0,0,1,7.5,7.451h-7.5A7.451,7.451,0,0,1,32.1,32.1Z" transform="translate(-14.778 -14.781)" fill="#414042" stroke="#fff" stroke-miterlimit="10" stroke-width="2"/></g></svg>