<svg xmlns="http://www.w3.org/2000/svg" xmlns:xlink="http://www.w3.org/1999/xlink" width="361.292" height="70" viewBox="0 0 361.292 70"><defs><clipPath id="a"><rect width="361.291" height="70" fill="none"/></clipPath><clipPath id="b"><rect width="30" height="21.656" fill="none"/></clipPath><clipPath id="c"><rect width="30" height="24" fill="none"/></clipPath><clipPath id="d"><rect width="90" height="19.999" fill="none"/></clipPath></defs><g clip-path="url(#a)"><rect width="360" height="70" fill="#414042"/><g transform="translate(30 24)" clip-path="url(#b)"><g clip-path="url(#c)"><g transform="translate(-27 -24)"><rect width="30" height="5" transform="translate(27 24)" fill="#d1d3d4"/></g><g transform="translate(-27 -16)"><rect width="30" height="5" transform="translate(27 24)" fill="#d1d3d4"/></g><g transform="translate(-27 -8)"><rect width="30" height="5" transform="translate(27 24)" fill="#d1d3d4"/></g></g></g><text transform="translate(238 52)" fill="#fff" font-size="10" font-family="Roboto-Regular, Roboto"><tspan x="0" y="0">search</tspan></text><text transform="translate(88 28)" fill="#fff" font-size="10" font-family="Roboto-Regular, Roboto"><tspan x="0" y="0">filter by:</tspan></text><g transform="translate(89 37)" clip-path="url(#d)"><path d="M3.062,61.312v-10a10,10,0,0,1,10-10v10A10,10,0,0,1,3.062,61.312Z" transform="translate(-3.062 -41.313)" fill="#1a675c"/><path d="M3.062,61.312v-10a10,10,0,0,1,10-10v10A10,10,0,0,1,3.062,61.312Z" transform="translate(12.938 -41.313)" fill="#286bb3"/><path d="M3.062,61.312v-10a10,10,0,0,1,10-10v10A10,10,0,0,1,3.062,61.312Z" transform="translate(28.938 -41.313)" fill="#910f19"/><path d="M3.062,61.312v-10a10,10,0,0,1,10-10v10A10,10,0,0,1,3.062,61.312Z" transform="translate(44.938 -41.313)" fill="#e50019"/><path d="M3.062,61.312v-10a10,10,0,0,1,10-10v10A10,10,0,0,1,3.062,61.312Z" transform="translate(60.938 -41.313)" fill="#f8810a"/><path d="M3.062,61.312v-10a10,10,0,0,1,10-10v10A10,10,0,0,1,3.062,61.312Z" transform="translate(76.938 -41.313)" fill="#f7ab00"/></g><line x2="127" transform="translate(234.5 56.5)" fill="none" stroke="#fff" stroke-width="1"/><path d="M28.346,60.128V40.693A19.435,19.435,0,0,1,47.781,21.26V40.693A19.435,19.435,0,0,1,28.346,60.128Z" transform="translate(174.597 84.781) rotate(-90)" fill="#fff"/></g></svg>