<svg xmlns="http://www.w3.org/2000/svg" width="73.221" height="44.456" viewBox="0 0 73.221 44.456"><g transform="translate(-0.014)"><g transform="translate(0.014)"><path d="M65,46.923v-16.7A16.622,16.622,0,0,0,48.3,13.6V30.222A16.7,16.7,0,0,0,65,46.923Z" transform="translate(-10.441 -2.937)" fill="#497dbf"/><path d="M6.753,40a22,22,0,0,1,0-31.7l8.133,7.9a11.154,11.154,0,0,0,0,15.888Z" transform="translate(-0.014 -1.792)" fill="#231f20"/><path d="M26.511,39.741a22.267,22.267,0,0,1,0-31.441l7.841,7.841a11.29,11.29,0,0,0,0,15.76Z" transform="translate(-4.332 -1.792)" fill="#231f20"/><path d="M76.526,37.629,70.1,22.261a16.622,16.622,0,0,0-21.8-9.017l6.429,15.368a16.7,16.7,0,0,0,21.8,9.017Z" transform="translate(-10.441 -2.581)" fill="#f8961d"/><path d="M43.981,52.748A22.346,22.346,0,0,1,28.3,46.241L36.141,38.4a11.29,11.29,0,0,0,15.76,0l7.841,7.841A22.346,22.346,0,0,1,43.981,52.748Z" transform="translate(-6.122 -8.292)" fill="#231f20"/><path d="M23.981,52.748A22.346,22.346,0,0,1,8.3,46.241L16.141,38.4a11.29,11.29,0,0,0,15.76,0l7.841,7.841a22.346,22.346,0,0,1-15.76,6.508Z" transform="translate(-1.803 -8.292)" fill="#231f20"/><path d="M16.141,14.351,8.3,6.511a22.267,22.267,0,0,1,31.441,0L31.9,14.351A11.29,11.29,0,0,0,16.141,14.351Z" transform="translate(-1.803 -0.003)" fill="#231f20"/><path d="M55.585,47.328l-4-10.35A12.466,12.466,0,0,0,53.86,35.8V31.255H45V20.2H64.994V40.664L63.347,42.31a22.032,22.032,0,0,1-7.762,5.018Z" transform="translate(-9.728 -4.362)" fill="#231f20"/><path d="M23.722,33.323V16.7A16.622,16.622,0,0,0,7.1,0V16.7A16.622,16.622,0,0,0,23.722,33.323Z" transform="translate(-1.544)" fill="#167970"/><path d="M28.867,37.164,35.3,21.8A16.7,16.7,0,0,0,26.2,0L19.85,15.368a16.7,16.7,0,0,0,9.017,21.8Z" transform="translate(-4.023)" fill="#a42022"/><path d="M36.141,14.351,28.3,6.511a22.267,22.267,0,0,1,31.441,0L51.9,14.351A11.29,11.29,0,0,0,36.141,14.351Z" transform="translate(-6.122 -0.003)" fill="#231f20"/><path d="M45,33.323V16.7A16.7,16.7,0,0,0,28.3,0V16.7A16.7,16.7,0,0,0,45,33.323Z" transform="translate(-6.122)" fill="#ed1c24"/><path d="M83.661,24.016,71.9,12.255a16.7,16.7,0,0,0-23.6,0L60.139,24.016a16.622,16.622,0,0,0,23.522,0Z" transform="translate(-10.441 -1.592)" fill="#f3bb19"/></g></g></svg>