<svg xmlns="http://www.w3.org/2000/svg" xmlns:xlink="http://www.w3.org/1999/xlink" width="30.31" height="25.385" viewBox="0 0 30.31 25.385"><defs><clipPath id="a"><rect width="30.31" height="25.385" fill="none"/></clipPath></defs><g clip-path="url(#a)"><path d="M118.588,753.994l5.03,5.03a7.114,7.114,0,0,0,10.06,0l-5.03-5.03A7.114,7.114,0,0,0,118.588,753.994Z" transform="translate(-104.783 -750.911)" fill="#313133" stroke="#fff" stroke-miterlimit="10" stroke-width="2"/><path d="M131.371,770.29v-7.114a7.114,7.114,0,0,0-7.114-7.114v7.114A7.114,7.114,0,0,0,131.371,770.29Z" transform="translate(-107.607 -752.979)" fill="#313133" stroke="#fff" stroke-miterlimit="10" stroke-width="2"/><path d="M111.529,756.062v7.114a7.114,7.114,0,0,1-7.114,7.114v-7.114A7.114,7.114,0,0,1,111.529,756.062Z" transform="translate(-97.723 -752.979)" fill="#313133" stroke="#fff" stroke-miterlimit="10" stroke-width="2"/><path d="M114.363,770.155v7.114a7.114,7.114,0,0,1-7.114,7.114v-7.114A7.114,7.114,0,0,1,114.363,770.155Z" transform="translate(-99.135 -759.998)" fill="#313133" stroke="#fff" stroke-miterlimit="10" stroke-width="2"/><path d="M125.7,770.29v-7.114a7.114,7.114,0,0,0-7.114-7.114v7.114A7.114,7.114,0,0,0,125.7,770.29Z" transform="translate(-104.783 -752.979)" fill="#313133" stroke="#fff" stroke-miterlimit="10" stroke-width="2"/><path d="M100.19,784.383v-7.114a7.114,7.114,0,0,0-7.114-7.114v7.114A7.114,7.114,0,0,0,100.19,784.383Z" transform="translate(-92.076 -759.998)" fill="#313133" stroke="#fff" stroke-miterlimit="10" stroke-width="2"/></g></svg>